<svg width="900.0" height="2898.0" viewBox="0 0 900.0 2898.0" xmlns="http://www.w3.org/2000/svg">
<style>/* font and background color specifications */
svg {
    font-family: SFMono-Regular,Consolas,Liberation Mono,Menlo,monospace;
    font-size: 14px;
    font-kerning: normal;
    text-rendering: optimizeLegibility;
    fill: #24292e;
}

/* default key styling */
rect {
    fill: #f6f8fa;
    stroke: #c9cccf;
    stroke-width: 1;
}

/* color accent for combo boxes */
rect.combo {
    fill: #cdf;
}

/* color accent for held keys */
rect.held, rect.combo.held {
    fill: #fdd;
}

/* color accent for ghost (optional) keys */
rect.ghost, rect.combo.ghost {
    fill: #ddd;
}

text {
    text-anchor: middle;
    dominant-baseline: middle;
}

/* styling for layer labels */
text.label {
    font-weight: bold;
    text-anchor: start;
    stroke: white;
    stroke-width: 2;
    paint-order: stroke;
}

/* styling for combo tap, and key hold/shifted label text */
text.combo, text.hold, text.shifted {
    font-size: 11px;
}

text.hold {
    text-anchor: middle;
    dominant-baseline: auto;
}

text.shifted {
    text-anchor: middle;
    dominant-baseline: hanging;
}

/* styling for hold/shifted label text in combo box */
text.combo.hold, text.combo.shifted {
    font-size: 8px;
}

/* styling for combo dendrons */
path {
    stroke-width: 1;
    stroke: gray;
    fill: none;
}
</style>
<g class="layer-Base">
<text x="30.0" y="28.0" class="label">Base:</text>
<rect rx="6.0" ry="6.0" x="32.0" y="123.10000000000002" width="66.0" height="66.0" class=""/>
<text x="65.0" y="156.10000000000002" class="tap">tab</text>
<rect rx="6.0" ry="6.0" x="102.0" y="79.7" width="66.0" height="66.0" class=""/>
<text x="135.0" y="112.7" class="tap">w</text>
<rect rx="6.0" ry="6.0" x="172.0" y="58.0" width="66.0" height="66.0" class=""/>
<text x="205.0" y="91.0" class="tap">e</text>
<rect rx="6.0" ry="6.0" x="242.0" y="77.6" width="66.0" height="66.0" class=""/>
<text x="275.0" y="110.6" class="tap">r</text>
<rect rx="6.0" ry="6.0" x="312.0" y="87.39999999999999" width="66.0" height="66.0" class=""/>
<text x="345.0" y="120.39999999999999" class="tap">t</text>
<rect rx="6.0" ry="6.0" x="522.0" y="87.39999999999999" width="66.0" height="66.0" class=""/>
<text x="555.0" y="120.39999999999999" class="tap">y</text>
<rect rx="6.0" ry="6.0" x="592.0" y="77.6" width="66.0" height="66.0" class=""/>
<text x="625.0" y="110.6" class="tap">u</text>
<rect rx="6.0" ry="6.0" x="662.0" y="58.0" width="66.0" height="66.0" class=""/>
<text x="695.0" y="91.0" class="tap">i</text>
<rect rx="6.0" ry="6.0" x="732.0" y="79.7" width="66.0" height="66.0" class=""/>
<text x="765.0" y="112.7" class="tap">o</text>
<rect rx="6.0" ry="6.0" x="802.0" y="123.10000000000002" width="66.0" height="66.0" class=""/>
<text x="835.0" y="156.10000000000002" class="tap">bspc</text>
<rect rx="6.0" ry="6.0" x="32.0" y="193.09999999999997" width="66.0" height="66.0" class=""/>
<text x="65.0" y="226.09999999999997" class="tap">a</text>
<rect rx="6.0" ry="6.0" x="102.0" y="149.7" width="66.0" height="66.0" class=""/>
<text x="135.0" y="182.7" class="tap">s</text>
<rect rx="6.0" ry="6.0" x="172.0" y="128.0" width="66.0" height="66.0" class=""/>
<text x="205.0" y="161.0" class="tap">d</text>
<rect rx="6.0" ry="6.0" x="242.0" y="147.60000000000002" width="66.0" height="66.0" class=""/>
<text x="275.0" y="180.60000000000002" class="tap">f</text>
<rect rx="6.0" ry="6.0" x="312.0" y="157.4" width="66.0" height="66.0" class=""/>
<text x="345.0" y="190.4" class="tap">g</text>
<rect rx="6.0" ry="6.0" x="522.0" y="157.4" width="66.0" height="66.0" class=""/>
<text x="555.0" y="190.4" class="tap">h</text>
<rect rx="6.0" ry="6.0" x="592.0" y="147.60000000000002" width="66.0" height="66.0" class=""/>
<text x="625.0" y="180.60000000000002" class="tap">j</text>
<rect rx="6.0" ry="6.0" x="662.0" y="128.0" width="66.0" height="66.0" class=""/>
<text x="695.0" y="161.0" class="tap">k</text>
<rect rx="6.0" ry="6.0" x="732.0" y="149.7" width="66.0" height="66.0" class=""/>
<text x="765.0" y="182.7" class="tap">l</text>
<rect rx="6.0" ry="6.0" x="802.0" y="193.09999999999997" width="66.0" height="66.0" class=""/>
<text x="835.0" y="226.09999999999997" class="tap">p</text>
<rect rx="6.0" ry="6.0" x="32.0" y="263.1" width="66.0" height="66.0" class=""/>
<text x="65.0" y="296.1" class="tap">z</text>
<text x="65.0" y="327.1" class="hold">ctrl</text>
<rect rx="6.0" ry="6.0" x="102.0" y="219.70000000000002" width="66.0" height="66.0" class=""/>
<text x="135.0" y="252.70000000000002" class="tap">x</text>
<text x="135.0" y="283.70000000000005" class="hold">alt</text>
<rect rx="6.0" ry="6.0" x="172.0" y="198.0" width="66.0" height="66.0" class=""/>
<text x="205.0" y="231.0" class="tap">c</text>
<text x="205.0" y="262.0" class="hold">win</text>
<rect rx="6.0" ry="6.0" x="242.0" y="217.6" width="66.0" height="66.0" class=""/>
<text x="275.0" y="250.6" class="tap">v</text>
<rect rx="6.0" ry="6.0" x="312.0" y="227.39999999999998" width="66.0" height="66.0" class=""/>
<text x="345.0" y="260.4" class="tap">b</text>
<rect rx="6.0" ry="6.0" x="522.0" y="227.39999999999998" width="66.0" height="66.0" class=""/>
<text x="555.0" y="260.4" class="tap">n</text>
<rect rx="6.0" ry="6.0" x="592.0" y="217.6" width="66.0" height="66.0" class=""/>
<text x="625.0" y="250.6" class="tap">m</text>
<rect rx="6.0" ry="6.0" x="662.0" y="198.0" width="66.0" height="66.0" class=""/>
<text x="695.0" y="231.0" class="tap">,</text>
<text x="695.0" y="262.0" class="hold">win</text>
<rect rx="6.0" ry="6.0" x="732.0" y="219.70000000000002" width="66.0" height="66.0" class=""/>
<text x="765.0" y="252.70000000000002" class="tap">.</text>
<text x="765.0" y="283.70000000000005" class="hold">alt</text>
<rect rx="6.0" ry="6.0" x="802.0" y="263.1" width="66.0" height="66.0" class=""/>
<text x="835.0" y="296.1" class="tap">enter</text>
<text x="835.0" y="327.1" class="hold">shift</text>
<rect rx="6.0" ry="6.0" x="277.0" y="320.5" width="66.0" height="66.0" class=""/>
<text x="310.0" y="353.5" class="tap">layer</text>
<rect rx="6.0" ry="6.0" x="347.0" y="338.0" width="66.0" height="66.0" class=""/>
<text x="380.0" y="371.0" class="tap">space</text>
<rect rx="6.0" ry="6.0" x="487.0" y="338.0" width="66.0" height="66.0" class=""/>
<text x="520.0" y="371.0" class="tap">ctrl</text>
<rect rx="6.0" ry="6.0" x="557.0" y="320.5" width="66.0" height="66.0" class=""/>
<text x="590.0" y="353.5" class="tap">
<tspan x="590.0" dy="-0.6em">layer</tspan><tspan x="590.0" dy="1.2em">shift</tspan></text>
</g>
<g class="layer-Shift(Base)">
<text x="30.0" y="434.0" class="label">Shift(Base):</text>
<rect rx="6.0" ry="6.0" x="32.0" y="529.1" width="66.0" height="66.0" class=""/>
<text x="65.0" y="562.1" class="tap">TAB</text>
<rect rx="6.0" ry="6.0" x="102.0" y="485.70000000000005" width="66.0" height="66.0" class=""/>
<text x="135.0" y="518.7" class="tap">W</text>
<rect rx="6.0" ry="6.0" x="172.0" y="464.0" width="66.0" height="66.0" class=""/>
<text x="205.0" y="497.0" class="tap">E</text>
<rect rx="6.0" ry="6.0" x="242.0" y="483.6" width="66.0" height="66.0" class=""/>
<text x="275.0" y="516.6" class="tap">R</text>
<rect rx="6.0" ry="6.0" x="312.0" y="493.4" width="66.0" height="66.0" class=""/>
<text x="345.0" y="526.4" class="tap">T</text>
<rect rx="6.0" ry="6.0" x="522.0" y="493.4" width="66.0" height="66.0" class=""/>
<text x="555.0" y="526.4" class="tap">Y</text>
<rect rx="6.0" ry="6.0" x="592.0" y="483.6" width="66.0" height="66.0" class=""/>
<text x="625.0" y="516.6" class="tap">U</text>
<rect rx="6.0" ry="6.0" x="662.0" y="464.0" width="66.0" height="66.0" class=""/>
<text x="695.0" y="497.0" class="tap">I</text>
<rect rx="6.0" ry="6.0" x="732.0" y="485.70000000000005" width="66.0" height="66.0" class=""/>
<text x="765.0" y="518.7" class="tap">O</text>
<rect rx="6.0" ry="6.0" x="802.0" y="529.1" width="66.0" height="66.0" class=""/>
<text x="835.0" y="562.1" class="tap">bspc</text>
<rect rx="6.0" ry="6.0" x="32.0" y="599.0999999999999" width="66.0" height="66.0" class=""/>
<text x="65.0" y="632.0999999999999" class="tap">A</text>
<rect rx="6.0" ry="6.0" x="102.0" y="555.7" width="66.0" height="66.0" class=""/>
<text x="135.0" y="588.7" class="tap">S</text>
<rect rx="6.0" ry="6.0" x="172.0" y="534.0" width="66.0" height="66.0" class=""/>
<text x="205.0" y="567.0" class="tap">D</text>
<rect rx="6.0" ry="6.0" x="242.0" y="553.6" width="66.0" height="66.0" class=""/>
<text x="275.0" y="586.6" class="tap">F</text>
<rect rx="6.0" ry="6.0" x="312.0" y="563.4" width="66.0" height="66.0" class=""/>
<text x="345.0" y="596.4" class="tap">G</text>
<rect rx="6.0" ry="6.0" x="522.0" y="563.4" width="66.0" height="66.0" class=""/>
<text x="555.0" y="596.4" class="tap">H</text>
<rect rx="6.0" ry="6.0" x="592.0" y="553.6" width="66.0" height="66.0" class=""/>
<text x="625.0" y="586.6" class="tap">J</text>
<rect rx="6.0" ry="6.0" x="662.0" y="534.0" width="66.0" height="66.0" class=""/>
<text x="695.0" y="567.0" class="tap">K</text>
<rect rx="6.0" ry="6.0" x="732.0" y="555.7" width="66.0" height="66.0" class=""/>
<text x="765.0" y="588.7" class="tap">L</text>
<rect rx="6.0" ry="6.0" x="802.0" y="599.0999999999999" width="66.0" height="66.0" class=""/>
<text x="835.0" y="632.0999999999999" class="tap">P</text>
<rect rx="6.0" ry="6.0" x="32.0" y="669.1" width="66.0" height="66.0" class=""/>
<text x="65.0" y="702.1" class="tap">Z</text>
<rect rx="6.0" ry="6.0" x="102.0" y="625.7" width="66.0" height="66.0" class=""/>
<text x="135.0" y="658.7" class="tap">X</text>
<rect rx="6.0" ry="6.0" x="172.0" y="604.0" width="66.0" height="66.0" class=""/>
<text x="205.0" y="637.0" class="tap">C</text>
<rect rx="6.0" ry="6.0" x="242.0" y="623.6" width="66.0" height="66.0" class=""/>
<text x="275.0" y="656.6" class="tap">V</text>
<rect rx="6.0" ry="6.0" x="312.0" y="633.4" width="66.0" height="66.0" class=""/>
<text x="345.0" y="666.4" class="tap">B</text>
<rect rx="6.0" ry="6.0" x="522.0" y="633.4" width="66.0" height="66.0" class=""/>
<text x="555.0" y="666.4" class="tap">N</text>
<rect rx="6.0" ry="6.0" x="592.0" y="623.6" width="66.0" height="66.0" class=""/>
<text x="625.0" y="656.6" class="tap">M</text>
<rect rx="6.0" ry="6.0" x="662.0" y="604.0" width="66.0" height="66.0" class=""/>
<text x="695.0" y="637.0" class="tap">&lt;</text>
<rect rx="6.0" ry="6.0" x="732.0" y="625.7" width="66.0" height="66.0" class=""/>
<text x="765.0" y="658.7" class="tap">&gt;</text>
<rect rx="6.0" ry="6.0" x="802.0" y="669.1" width="66.0" height="66.0" class=""/>
<text x="835.0" y="702.1" class="tap">ENTER</text>
<rect rx="6.0" ry="6.0" x="277.0" y="726.5" width="66.0" height="66.0" class=""/>
<text x="310.0" y="759.5" class="tap">layer</text>
<rect rx="6.0" ry="6.0" x="347.0" y="744.0" width="66.0" height="66.0" class=""/>
<text x="380.0" y="777.0" class="tap">space</text>
<rect rx="6.0" ry="6.0" x="487.0" y="744.0" width="66.0" height="66.0" class=""/>
<text x="520.0" y="777.0" class="tap">ctrl</text>
<rect rx="6.0" ry="6.0" x="557.0" y="726.5" width="66.0" height="66.0" class="held"/>
</g>
<g class="layer-Sybols/Nav">
<text x="30.0" y="840.0" class="label">Sybols/Nav:</text>
<rect rx="6.0" ry="6.0" x="32.0" y="935.1" width="66.0" height="66.0" class=""/>
<text x="65.0" y="968.1" class="tap">q</text>
<text x="65.0" y="999.1" class="hold">MACRO</text>
<rect rx="6.0" ry="6.0" x="102.0" y="891.7" width="66.0" height="66.0" class=""/>
<text x="135.0" y="924.7" class="tap">.</text>
<text x="135.0" y="955.7" class="hold">shift</text>
<rect rx="6.0" ry="6.0" x="172.0" y="870.0" width="66.0" height="66.0" class=""/>
<text x="205.0" y="903.0" class="tap">,</text>
<text x="205.0" y="934.0" class="hold">ctrl</text>
<rect rx="6.0" ry="6.0" x="242.0" y="889.6" width="66.0" height="66.0" class=""/>
<text x="275.0" y="922.6" class="tap">alt</text>
<rect rx="6.0" ry="6.0" x="312.0" y="899.4" width="66.0" height="66.0" class=""/>
<text x="345.0" y="932.4" class="tap">esc</text>
<text x="345.0" y="963.4" class="hold">win</text>
<rect rx="6.0" ry="6.0" x="522.0" y="899.4" width="66.0" height="66.0" class=""/>
<text x="555.0" y="932.4" class="tap">del</text>
<rect rx="6.0" ry="6.0" x="592.0" y="889.6" width="66.0" height="66.0" class=""/>
<text x="625.0" y="922.6" class="tap">`</text>
<rect rx="6.0" ry="6.0" x="662.0" y="870.0" width="66.0" height="66.0" class=""/>
<text x="695.0" y="903.0" class="tap">up</text>
<rect rx="6.0" ry="6.0" x="732.0" y="891.7" width="66.0" height="66.0" class=""/>
<text x="765.0" y="924.7" class="tap">&#x27;</text>
<rect rx="6.0" ry="6.0" x="802.0" y="935.1" width="66.0" height="66.0" class=""/>
<text x="835.0" y="968.1" class="tap">bspc</text>
<rect rx="6.0" ry="6.0" x="32.0" y="1005.0999999999999" width="66.0" height="66.0" class=""/>
<text x="65.0" y="1038.1" class="tap">1</text>
<rect rx="6.0" ry="6.0" x="102.0" y="961.7" width="66.0" height="66.0" class=""/>
<text x="135.0" y="994.7" class="tap">2</text>
<rect rx="6.0" ry="6.0" x="172.0" y="940.0" width="66.0" height="66.0" class=""/>
<text x="205.0" y="973.0" class="tap">3</text>
<rect rx="6.0" ry="6.0" x="242.0" y="959.6" width="66.0" height="66.0" class=""/>
<text x="275.0" y="992.6" class="tap">4</text>
<rect rx="6.0" ry="6.0" x="312.0" y="969.4" width="66.0" height="66.0" class=""/>
<text x="345.0" y="1002.4" class="tap">5</text>
<rect rx="6.0" ry="6.0" x="522.0" y="969.4" width="66.0" height="66.0" class=""/>
<text x="555.0" y="1002.4" class="tap">\</text>
<rect rx="6.0" ry="6.0" x="592.0" y="959.6" width="66.0" height="66.0" class=""/>
<text x="625.0" y="992.6" class="tap">left</text>
<rect rx="6.0" ry="6.0" x="662.0" y="940.0" width="66.0" height="66.0" class=""/>
<text x="695.0" y="973.0" class="tap">down</text>
<rect rx="6.0" ry="6.0" x="732.0" y="961.7" width="66.0" height="66.0" class=""/>
<text x="765.0" y="994.7" class="tap">right</text>
<rect rx="6.0" ry="6.0" x="802.0" y="1005.0999999999999" width="66.0" height="66.0" class=""/>
<text x="835.0" y="1038.1" class="tap">;</text>
<text x="835.0" y="1069.1" class="hold">fxn</text>
<rect rx="6.0" ry="6.0" x="32.0" y="1075.1" width="66.0" height="66.0" class=""/>
<text x="65.0" y="1108.1" class="tap">6</text>
<rect rx="6.0" ry="6.0" x="102.0" y="1031.7" width="66.0" height="66.0" class=""/>
<text x="135.0" y="1064.7" class="tap">7</text>
<rect rx="6.0" ry="6.0" x="172.0" y="1010.0" width="66.0" height="66.0" class=""/>
<text x="205.0" y="1043.0" class="tap">8</text>
<rect rx="6.0" ry="6.0" x="242.0" y="1029.6" width="66.0" height="66.0" class=""/>
<text x="275.0" y="1062.6" class="tap">9</text>
<rect rx="6.0" ry="6.0" x="312.0" y="1039.4" width="66.0" height="66.0" class=""/>
<text x="345.0" y="1072.4" class="tap">0</text>
<rect rx="6.0" ry="6.0" x="522.0" y="1039.4" width="66.0" height="66.0" class=""/>
<text x="555.0" y="1072.4" class="tap">_</text>
<rect rx="6.0" ry="6.0" x="592.0" y="1029.6" width="66.0" height="66.0" class=""/>
<text x="625.0" y="1062.6" class="tap">/</text>
<rect rx="6.0" ry="6.0" x="662.0" y="1010.0" width="66.0" height="66.0" class=""/>
<text x="695.0" y="1043.0" class="tap">(</text>
<rect rx="6.0" ry="6.0" x="732.0" y="1031.7" width="66.0" height="66.0" class=""/>
<text x="765.0" y="1064.7" class="tap">)</text>
<rect rx="6.0" ry="6.0" x="802.0" y="1075.1" width="66.0" height="66.0" class=""/>
<text x="835.0" y="1108.1" class="tap">enter</text>
<text x="835.0" y="1139.1" class="hold">shift</text>
<rect rx="6.0" ry="6.0" x="277.0" y="1132.5" width="66.0" height="66.0" class="held"/>
<rect rx="6.0" ry="6.0" x="347.0" y="1150.0" width="66.0" height="66.0" class=""/>
<text x="380.0" y="1183.0" class="tap">space</text>
<rect rx="6.0" ry="6.0" x="487.0" y="1150.0" width="66.0" height="66.0" class=""/>
<text x="520.0" y="1183.0" class="tap">ctrl</text>
<rect rx="6.0" ry="6.0" x="557.0" y="1132.5" width="66.0" height="66.0" class=""/>
<text x="590.0" y="1165.5" class="tap">
<tspan x="590.0" dy="-0.6em">layer</tspan><tspan x="590.0" dy="1.2em">shift</tspan></text>
</g>
<g class="layer-Shift(Symbols/Nav)">
<text x="30.0" y="1246.0" class="label">Shift(Symbols/Nav):</text>
<rect rx="6.0" ry="6.0" x="32.0" y="1341.1" width="66.0" height="66.0" class=""/>
<text x="65.0" y="1374.1" class="tap">Q</text>
<rect rx="6.0" ry="6.0" x="102.0" y="1297.7" width="66.0" height="66.0" class=""/>
<text x="135.0" y="1330.7" class="tap">%</text>
<rect rx="6.0" ry="6.0" x="172.0" y="1276.0" width="66.0" height="66.0" class=""/>
<text x="205.0" y="1309.0" class="tap">^</text>
<rect rx="6.0" ry="6.0" x="242.0" y="1295.6" width="66.0" height="66.0" class=""/>
<text x="275.0" y="1328.6" class="tap">&amp;</text>
<rect rx="6.0" ry="6.0" x="312.0" y="1305.4" width="66.0" height="66.0" class=""/>
<text x="345.0" y="1338.4" class="tap">escape</text>
<rect rx="6.0" ry="6.0" x="522.0" y="1305.4" width="66.0" height="66.0" class=""/>
<text x="555.0" y="1338.4" class="tap">delete</text>
<rect rx="6.0" ry="6.0" x="592.0" y="1295.6" width="66.0" height="66.0" class=""/>
<text x="625.0" y="1328.6" class="tap">~</text>
<rect rx="6.0" ry="6.0" x="662.0" y="1276.0" width="66.0" height="66.0" class=""/>
<text x="695.0" y="1309.0" class="tap">
<tspan x="695.0" dy="-0.6em">page</tspan><tspan x="695.0" dy="1.2em">up</tspan></text>
<rect rx="6.0" ry="6.0" x="732.0" y="1297.7" width="66.0" height="66.0" class=""/>
<text x="765.0" y="1330.7" class="tap">&quot;</text>
<rect rx="6.0" ry="6.0" x="802.0" y="1341.1" width="66.0" height="66.0" class=""/>
<text x="835.0" y="1374.1" class="tap">bspc</text>
<rect rx="6.0" ry="6.0" x="32.0" y="1411.1" width="66.0" height="66.0" class=""/>
<text x="65.0" y="1444.1" class="tap">/</text>
<rect rx="6.0" ry="6.0" x="102.0" y="1367.7" width="66.0" height="66.0" class=""/>
<text x="135.0" y="1400.7" class="tap">*</text>
<rect rx="6.0" ry="6.0" x="172.0" y="1346.0" width="66.0" height="66.0" class=""/>
<text x="205.0" y="1379.0" class="tap">-</text>
<rect rx="6.0" ry="6.0" x="242.0" y="1365.6" width="66.0" height="66.0" class=""/>
<text x="275.0" y="1398.6" class="tap">+</text>
<rect rx="6.0" ry="6.0" x="312.0" y="1375.4" width="66.0" height="66.0" class=""/>
<text x="345.0" y="1408.4" class="tap">=</text>
<rect rx="6.0" ry="6.0" x="522.0" y="1375.4" width="66.0" height="66.0" class=""/>
<text x="555.0" y="1408.4" class="tap">|</text>
<rect rx="6.0" ry="6.0" x="592.0" y="1365.6" width="66.0" height="66.0" class=""/>
<text x="625.0" y="1398.6" class="tap">home</text>
<rect rx="6.0" ry="6.0" x="662.0" y="1346.0" width="66.0" height="66.0" class=""/>
<text x="695.0" y="1379.0" class="tap">
<tspan x="695.0" dy="-0.6em">page</tspan><tspan x="695.0" dy="1.2em">down</tspan></text>
<rect rx="6.0" ry="6.0" x="732.0" y="1367.7" width="66.0" height="66.0" class=""/>
<text x="765.0" y="1400.7" class="tap">end</text>
<rect rx="6.0" ry="6.0" x="802.0" y="1411.1" width="66.0" height="66.0" class=""/>
<text x="835.0" y="1444.1" class="tap">:</text>
<rect rx="6.0" ry="6.0" x="32.0" y="1481.1" width="66.0" height="66.0" class=""/>
<text x="65.0" y="1514.1" class="tap">!</text>
<rect rx="6.0" ry="6.0" x="102.0" y="1437.7" width="66.0" height="66.0" class=""/>
<text x="135.0" y="1470.7" class="tap">@</text>
<rect rx="6.0" ry="6.0" x="172.0" y="1416.0" width="66.0" height="66.0" class=""/>
<text x="205.0" y="1449.0" class="tap">#</text>
<rect rx="6.0" ry="6.0" x="242.0" y="1435.6" width="66.0" height="66.0" class=""/>
<text x="275.0" y="1468.6" class="tap">$</text>
<rect rx="6.0" ry="6.0" x="312.0" y="1445.4" width="66.0" height="66.0" class=""/>
<text x="345.0" y="1478.4" class="tap">_</text>
<rect rx="6.0" ry="6.0" x="522.0" y="1445.4" width="66.0" height="66.0" class=""/>
<text x="555.0" y="1478.4" class="tap">[</text>
<rect rx="6.0" ry="6.0" x="592.0" y="1435.6" width="66.0" height="66.0" class=""/>
<text x="625.0" y="1468.6" class="tap">]</text>
<rect rx="6.0" ry="6.0" x="662.0" y="1416.0" width="66.0" height="66.0" class=""/>
<text x="695.0" y="1449.0" class="tap">{</text>
<rect rx="6.0" ry="6.0" x="732.0" y="1437.7" width="66.0" height="66.0" class=""/>
<text x="765.0" y="1470.7" class="tap">}</text>
<rect rx="6.0" ry="6.0" x="802.0" y="1481.1" width="66.0" height="66.0" class=""/>
<text x="835.0" y="1514.1" class="tap">?</text>
<rect rx="6.0" ry="6.0" x="277.0" y="1538.5" width="66.0" height="66.0" class="held"/>
<rect rx="6.0" ry="6.0" x="347.0" y="1556.0" width="66.0" height="66.0" class=""/>
<text x="380.0" y="1589.0" class="tap">space</text>
<rect rx="6.0" ry="6.0" x="487.0" y="1556.0" width="66.0" height="66.0" class=""/>
<text x="520.0" y="1589.0" class="tap">ctrl</text>
<rect rx="6.0" ry="6.0" x="557.0" y="1538.5" width="66.0" height="66.0" class="held"/>
</g>
<g class="layer-Macro">
<text x="30.0" y="1652.0" class="label">Macro:</text>
<rect rx="6.0" ry="6.0" x="32.0" y="1747.1" width="66.0" height="66.0" class="ghost"/>
<rect rx="6.0" ry="6.0" x="102.0" y="1703.7" width="66.0" height="66.0" class=""/>
<text x="135.0" y="1736.7" class="tap">To(Game)</text>
<rect rx="6.0" ry="6.0" x="172.0" y="1682.0" width="66.0" height="66.0" class=""/>
<rect rx="6.0" ry="6.0" x="242.0" y="1701.6" width="66.0" height="66.0" class=""/>
<rect rx="6.0" ry="6.0" x="312.0" y="1711.4" width="66.0" height="66.0" class=""/>
<rect rx="6.0" ry="6.0" x="522.0" y="1711.4" width="66.0" height="66.0" class=""/>
<text x="555.0" y="1744.4" class="tap">
<tspan x="555.0" dy="-0.6em">vol</tspan><tspan x="555.0" dy="1.2em">up</tspan></text>
<rect rx="6.0" ry="6.0" x="592.0" y="1701.6" width="66.0" height="66.0" class=""/>
<text x="625.0" y="1734.6" class="tap">
<tspan x="625.0" dy="-0.6em">ctrl</tspan><tspan x="625.0" dy="1.2em">=</tspan></text>
<rect rx="6.0" ry="6.0" x="662.0" y="1682.0" width="66.0" height="66.0" class=""/>
<text x="695.0" y="1715.0" class="tap">
<tspan x="695.0" dy="-0.6em">scroll</tspan><tspan x="695.0" dy="1.2em">up</tspan></text>
<rect rx="6.0" ry="6.0" x="732.0" y="1703.7" width="66.0" height="66.0" class=""/>
<text x="765.0" y="1736.7" class="tap">
<tspan x="765.0" dy="-0.6em">ctrl</tspan><tspan x="765.0" dy="1.2em">-</tspan></text>
<rect rx="6.0" ry="6.0" x="802.0" y="1747.1" width="66.0" height="66.0" class=""/>
<rect rx="6.0" ry="6.0" x="32.0" y="1817.1" width="66.0" height="66.0" class=""/>
<rect rx="6.0" ry="6.0" x="102.0" y="1773.7" width="66.0" height="66.0" class=""/>
<rect rx="6.0" ry="6.0" x="172.0" y="1752.0" width="66.0" height="66.0" class=""/>
<text x="205.0" y="1785.0" class="tap">-&gt;</text>
<rect rx="6.0" ry="6.0" x="242.0" y="1771.6" width="66.0" height="66.0" class=""/>
<rect rx="6.0" ry="6.0" x="312.0" y="1781.4" width="66.0" height="66.0" class=""/>
<rect rx="6.0" ry="6.0" x="522.0" y="1781.4" width="66.0" height="66.0" class=""/>
<text x="555.0" y="1814.4" class="tap">mute</text>
<rect rx="6.0" ry="6.0" x="592.0" y="1771.6" width="66.0" height="66.0" class=""/>
<text x="625.0" y="1804.6" class="tap">
<tspan x="625.0" dy="-0.6em">scroll</tspan><tspan x="625.0" dy="1.2em">left</tspan></text>
<rect rx="6.0" ry="6.0" x="662.0" y="1752.0" width="66.0" height="66.0" class=""/>
<text x="695.0" y="1785.0" class="tap">
<tspan x="695.0" dy="-0.6em">scroll</tspan><tspan x="695.0" dy="1.2em">down</tspan></text>
<rect rx="6.0" ry="6.0" x="732.0" y="1773.7" width="66.0" height="66.0" class=""/>
<text x="765.0" y="1806.7" class="tap">
<tspan x="765.0" dy="-0.6em">scroll</tspan><tspan x="765.0" dy="1.2em">right</tspan></text>
<rect rx="6.0" ry="6.0" x="802.0" y="1817.1" width="66.0" height="66.0" class=""/>
<rect rx="6.0" ry="6.0" x="32.0" y="1887.1" width="66.0" height="66.0" class=""/>
<rect rx="6.0" ry="6.0" x="102.0" y="1843.7" width="66.0" height="66.0" class=""/>
<rect rx="6.0" ry="6.0" x="172.0" y="1822.0" width="66.0" height="66.0" class=""/>
<rect rx="6.0" ry="6.0" x="242.0" y="1841.6" width="66.0" height="66.0" class=""/>
<rect rx="6.0" ry="6.0" x="312.0" y="1851.4" width="66.0" height="66.0" class=""/>
<rect rx="6.0" ry="6.0" x="522.0" y="1851.4" width="66.0" height="66.0" class=""/>
<text x="555.0" y="1884.4" class="tap">
<tspan x="555.0" dy="-0.6em">vol</tspan><tspan x="555.0" dy="1.2em">down</tspan></text>
<rect rx="6.0" ry="6.0" x="592.0" y="1841.6" width="66.0" height="66.0" class=""/>
<text x="625.0" y="1874.6" class="tap">prev</text>
<rect rx="6.0" ry="6.0" x="662.0" y="1822.0" width="66.0" height="66.0" class=""/>
<text x="695.0" y="1855.0" class="tap">pause</text>
<rect rx="6.0" ry="6.0" x="732.0" y="1843.7" width="66.0" height="66.0" class=""/>
<text x="765.0" y="1876.7" class="tap">next</text>
<rect rx="6.0" ry="6.0" x="802.0" y="1887.1" width="66.0" height="66.0" class=""/>
<rect rx="6.0" ry="6.0" x="277.0" y="1944.5" width="66.0" height="66.0" class="held"/>
<rect rx="6.0" ry="6.0" x="347.0" y="1962.0" width="66.0" height="66.0" class=""/>
<text x="380.0" y="1995.0" class="tap">space</text>
<rect rx="6.0" ry="6.0" x="487.0" y="1962.0" width="66.0" height="66.0" class=""/>
<rect rx="6.0" ry="6.0" x="557.0" y="1944.5" width="66.0" height="66.0" class=""/>
</g>
<g class="layer-Fxn">
<text x="30.0" y="2058.0" class="label">Fxn:</text>
<rect rx="6.0" ry="6.0" x="32.0" y="2153.1" width="66.0" height="66.0" class=""/>
<rect rx="6.0" ry="6.0" x="102.0" y="2109.7" width="66.0" height="66.0" class=""/>
<rect rx="6.0" ry="6.0" x="172.0" y="2088.0" width="66.0" height="66.0" class=""/>
<rect rx="6.0" ry="6.0" x="242.0" y="2107.6" width="66.0" height="66.0" class=""/>
<text x="275.0" y="2140.6" class="tap">F11</text>
<rect rx="6.0" ry="6.0" x="312.0" y="2117.4" width="66.0" height="66.0" class=""/>
<text x="345.0" y="2150.4" class="tap">F12</text>
<rect rx="6.0" ry="6.0" x="522.0" y="2117.4" width="66.0" height="66.0" class=""/>
<rect rx="6.0" ry="6.0" x="592.0" y="2107.6" width="66.0" height="66.0" class=""/>
<rect rx="6.0" ry="6.0" x="662.0" y="2088.0" width="66.0" height="66.0" class=""/>
<rect rx="6.0" ry="6.0" x="732.0" y="2109.7" width="66.0" height="66.0" class=""/>
<rect rx="6.0" ry="6.0" x="802.0" y="2153.1" width="66.0" height="66.0" class=""/>
<rect rx="6.0" ry="6.0" x="32.0" y="2223.1" width="66.0" height="66.0" class=""/>
<text x="65.0" y="2256.1" class="tap">F1</text>
<rect rx="6.0" ry="6.0" x="102.0" y="2179.7" width="66.0" height="66.0" class=""/>
<text x="135.0" y="2212.7" class="tap">F2</text>
<rect rx="6.0" ry="6.0" x="172.0" y="2158.0" width="66.0" height="66.0" class=""/>
<text x="205.0" y="2191.0" class="tap">F3</text>
<rect rx="6.0" ry="6.0" x="242.0" y="2177.6" width="66.0" height="66.0" class=""/>
<text x="275.0" y="2210.6" class="tap">F4</text>
<rect rx="6.0" ry="6.0" x="312.0" y="2187.4" width="66.0" height="66.0" class=""/>
<text x="345.0" y="2220.4" class="tap">F5</text>
<rect rx="6.0" ry="6.0" x="522.0" y="2187.4" width="66.0" height="66.0" class=""/>
<rect rx="6.0" ry="6.0" x="592.0" y="2177.6" width="66.0" height="66.0" class=""/>
<text x="625.0" y="2210.6" class="tap">
<tspan x="625.0" dy="-0.6em">ctrl</tspan><tspan x="625.0" dy="1.2em">[</tspan></text>
<rect rx="6.0" ry="6.0" x="662.0" y="2158.0" width="66.0" height="66.0" class=""/>
<text x="695.0" y="2191.0" class="tap">alt</text>
<rect rx="6.0" ry="6.0" x="732.0" y="2179.7" width="66.0" height="66.0" class=""/>
<text x="765.0" y="2212.7" class="tap">
<tspan x="765.0" dy="-0.6em">ctrl</tspan><tspan x="765.0" dy="1.2em">]</tspan></text>
<rect rx="6.0" ry="6.0" x="802.0" y="2223.1" width="66.0" height="66.0" class="ghost"/>
<rect rx="6.0" ry="6.0" x="32.0" y="2293.1" width="66.0" height="66.0" class=""/>
<text x="65.0" y="2326.1" class="tap">F6</text>
<rect rx="6.0" ry="6.0" x="102.0" y="2249.7" width="66.0" height="66.0" class=""/>
<text x="135.0" y="2282.7" class="tap">F7</text>
<rect rx="6.0" ry="6.0" x="172.0" y="2228.0" width="66.0" height="66.0" class=""/>
<text x="205.0" y="2261.0" class="tap">F8</text>
<rect rx="6.0" ry="6.0" x="242.0" y="2247.6" width="66.0" height="66.0" class=""/>
<text x="275.0" y="2280.6" class="tap">F9</text>
<rect rx="6.0" ry="6.0" x="312.0" y="2257.4" width="66.0" height="66.0" class=""/>
<text x="345.0" y="2290.4" class="tap">F10</text>
<rect rx="6.0" ry="6.0" x="522.0" y="2257.4" width="66.0" height="66.0" class=""/>
<rect rx="6.0" ry="6.0" x="592.0" y="2247.6" width="66.0" height="66.0" class=""/>
<rect rx="6.0" ry="6.0" x="662.0" y="2228.0" width="66.0" height="66.0" class=""/>
<rect rx="6.0" ry="6.0" x="732.0" y="2249.7" width="66.0" height="66.0" class=""/>
<rect rx="6.0" ry="6.0" x="802.0" y="2293.1" width="66.0" height="66.0" class=""/>
<rect rx="6.0" ry="6.0" x="277.0" y="2350.5" width="66.0" height="66.0" class="held"/>
<rect rx="6.0" ry="6.0" x="347.0" y="2368.0" width="66.0" height="66.0" class=""/>
<rect rx="6.0" ry="6.0" x="487.0" y="2368.0" width="66.0" height="66.0" class=""/>
<rect rx="6.0" ry="6.0" x="557.0" y="2350.5" width="66.0" height="66.0" class=""/>
</g>
<g class="layer-Game">
<text x="30.0" y="2464.0" class="label">Game:</text>
<rect rx="6.0" ry="6.0" x="32.0" y="2559.1" width="66.0" height="66.0" class=""/>
<text x="65.0" y="2592.1" class="tap">tab</text>
<rect rx="6.0" ry="6.0" x="102.0" y="2515.7" width="66.0" height="66.0" class=""/>
<text x="135.0" y="2548.7" class="tap">q</text>
<rect rx="6.0" ry="6.0" x="172.0" y="2494.0" width="66.0" height="66.0" class=""/>
<text x="205.0" y="2527.0" class="tap">w</text>
<rect rx="6.0" ry="6.0" x="242.0" y="2513.6" width="66.0" height="66.0" class=""/>
<text x="275.0" y="2546.6" class="tap">e</text>
<rect rx="6.0" ry="6.0" x="312.0" y="2523.4" width="66.0" height="66.0" class=""/>
<text x="345.0" y="2556.4" class="tap">r</text>
<rect rx="6.0" ry="6.0" x="522.0" y="2523.4" width="66.0" height="66.0" class=""/>
<text x="555.0" y="2556.4" class="tap">
<tspan x="555.0" dy="-0.6em">vol</tspan><tspan x="555.0" dy="1.2em">up</tspan></text>
<rect rx="6.0" ry="6.0" x="592.0" y="2513.6" width="66.0" height="66.0" class=""/>
<text x="625.0" y="2546.6" class="tap">
<tspan x="625.0" dy="-0.6em">ctrl</tspan><tspan x="625.0" dy="1.2em">=</tspan></text>
<rect rx="6.0" ry="6.0" x="662.0" y="2494.0" width="66.0" height="66.0" class=""/>
<rect rx="6.0" ry="6.0" x="732.0" y="2515.7" width="66.0" height="66.0" class=""/>
<text x="765.0" y="2548.7" class="tap">
<tspan x="765.0" dy="-0.6em">ctrl</tspan><tspan x="765.0" dy="1.2em">-</tspan></text>
<rect rx="6.0" ry="6.0" x="802.0" y="2559.1" width="66.0" height="66.0" class=""/>
<rect rx="6.0" ry="6.0" x="32.0" y="2629.1" width="66.0" height="66.0" class=""/>
<text x="65.0" y="2662.1" class="tap">shift</text>
<rect rx="6.0" ry="6.0" x="102.0" y="2585.7" width="66.0" height="66.0" class=""/>
<text x="135.0" y="2618.7" class="tap">a</text>
<rect rx="6.0" ry="6.0" x="172.0" y="2564.0" width="66.0" height="66.0" class=""/>
<text x="205.0" y="2597.0" class="tap">s</text>
<rect rx="6.0" ry="6.0" x="242.0" y="2583.6" width="66.0" height="66.0" class=""/>
<text x="275.0" y="2616.6" class="tap">d</text>
<rect rx="6.0" ry="6.0" x="312.0" y="2593.4" width="66.0" height="66.0" class=""/>
<text x="345.0" y="2626.4" class="tap">f</text>
<rect rx="6.0" ry="6.0" x="522.0" y="2593.4" width="66.0" height="66.0" class=""/>
<text x="555.0" y="2626.4" class="tap">mute</text>
<rect rx="6.0" ry="6.0" x="592.0" y="2583.6" width="66.0" height="66.0" class=""/>
<rect rx="6.0" ry="6.0" x="662.0" y="2564.0" width="66.0" height="66.0" class=""/>
<text x="695.0" y="2597.0" class="tap">-&gt;</text>
<rect rx="6.0" ry="6.0" x="732.0" y="2585.7" width="66.0" height="66.0" class=""/>
<rect rx="6.0" ry="6.0" x="802.0" y="2629.1" width="66.0" height="66.0" class=""/>
<rect rx="6.0" ry="6.0" x="32.0" y="2699.1" width="66.0" height="66.0" class=""/>
<text x="65.0" y="2732.1" class="tap">ctrl</text>
<rect rx="6.0" ry="6.0" x="102.0" y="2655.7" width="66.0" height="66.0" class=""/>
<text x="135.0" y="2688.7" class="tap">z</text>
<rect rx="6.0" ry="6.0" x="172.0" y="2634.0" width="66.0" height="66.0" class=""/>
<text x="205.0" y="2667.0" class="tap">x</text>
<rect rx="6.0" ry="6.0" x="242.0" y="2653.6" width="66.0" height="66.0" class=""/>
<text x="275.0" y="2686.6" class="tap">c</text>
<rect rx="6.0" ry="6.0" x="312.0" y="2663.4" width="66.0" height="66.0" class=""/>
<text x="345.0" y="2696.4" class="tap">v</text>
<rect rx="6.0" ry="6.0" x="522.0" y="2663.4" width="66.0" height="66.0" class=""/>
<text x="555.0" y="2696.4" class="tap">
<tspan x="555.0" dy="-0.6em">vol</tspan><tspan x="555.0" dy="1.2em">down</tspan></text>
<rect rx="6.0" ry="6.0" x="592.0" y="2653.6" width="66.0" height="66.0" class=""/>
<text x="625.0" y="2686.6" class="tap">prev</text>
<rect rx="6.0" ry="6.0" x="662.0" y="2634.0" width="66.0" height="66.0" class=""/>
<text x="695.0" y="2667.0" class="tap">pause</text>
<rect rx="6.0" ry="6.0" x="732.0" y="2655.7" width="66.0" height="66.0" class=""/>
<text x="765.0" y="2688.7" class="tap">next</text>
<rect rx="6.0" ry="6.0" x="802.0" y="2699.1" width="66.0" height="66.0" class=""/>
<rect rx="6.0" ry="6.0" x="277.0" y="2756.5" width="66.0" height="66.0" class=""/>
<text x="310.0" y="2789.5" class="tap">escape</text>
<rect rx="6.0" ry="6.0" x="347.0" y="2774.0" width="66.0" height="66.0" class=""/>
<text x="380.0" y="2807.0" class="tap">space</text>
<rect rx="6.0" ry="6.0" x="487.0" y="2774.0" width="66.0" height="66.0" class=""/>
<rect rx="6.0" ry="6.0" x="557.0" y="2756.5" width="66.0" height="66.0" class=""/>
<text x="590.0" y="2789.5" class="tap">To(Base)</text>
</g>
</svg>
